<?xml version="1.0" encoding="UTF-8" standalone="no"?>
<!-- Created with Inkscape (http://www.inkscape.org/) -->

<svg
   xmlns:dc="http://purl.org/dc/elements/1.1/"
   xmlns:cc="http://creativecommons.org/ns#"
   xmlns:rdf="http://www.w3.org/1999/02/22-rdf-syntax-ns#"
   xmlns:svg="http://www.w3.org/2000/svg"
   xmlns="http://www.w3.org/2000/svg"
   xmlns:xlink="http://www.w3.org/1999/xlink"
   xmlns:sodipodi="http://sodipodi.sourceforge.net/DTD/sodipodi-0.dtd"
   xmlns:inkscape="http://www.inkscape.org/namespaces/inkscape"
   width="64"
   height="64"
   id="svg2"
   version="1.1"
   inkscape:version="0.48.4 r9939"
   sodipodi:docname="dessin.svg">
  <defs
     id="defs4">
    <linearGradient
       id="linearGradient3768">
      <stop
         style="stop-color:#ffffff;stop-opacity:1;"
         offset="0"
         id="stop3770" />
      <stop
         style="stop-color:#b7b3b3;stop-opacity:1;"
         offset="1"
         id="stop3772" />
    </linearGradient>
    <linearGradient
       inkscape:collect="always"
       xlink:href="#linearGradient3768"
       id="linearGradient3774"
       x1="25"
       y1="29"
       x2="25"
       y2="59"
       gradientUnits="userSpaceOnUse" />
  </defs>
  <sodipodi:namedview
     id="base"
     pagecolor="#ffffff"
     bordercolor="#666666"
     borderopacity="1.0"
     inkscape:pageopacity="0.0"
     inkscape:pageshadow="2"
     inkscape:zoom="3.959798"
     inkscape:cx="38.421601"
     inkscape:cy="20.742846"
     inkscape:document-units="px"
     inkscape:current-layer="layer1"
     showgrid="true"
     inkscape:window-width="886"
     inkscape:window-height="626"
     inkscape:window-x="122"
     inkscape:window-y="218"
     inkscape:window-maximized="0">
    <inkscape:grid
       type="xygrid"
       id="grid2985"
       empspacing="5"
       visible="true"
       enabled="true"
       snapvisiblegridlinesonly="true" />
  </sodipodi:namedview>
  <metadata
     id="metadata7">
    <rdf:RDF>
      <cc:Work
         rdf:about="">
        <dc:format>image/svg+xml</dc:format>
        <dc:type
           rdf:resource="http://purl.org/dc/dcmitype/StillImage" />
        <dc:title></dc:title>
      </cc:Work>
    </rdf:RDF>
  </metadata>
  <g
     inkscape:label="Calque 1"
     inkscape:groupmode="layer"
     id="layer1"
     transform="translate(0,-988.36218)">
    <path
       style="fill:url(#linearGradient3774);stroke:#000000;stroke-width:1px;stroke-linecap:butt;stroke-linejoin:miter;stroke-opacity:1;fill-opacity:1"
       d="M 5,59 5,4 35,4 45,14 45,59 5,59"
       id="path2987"
       inkscape:connector-curvature="0"
       transform="translate(0,988.36218)" />
    <path
       sodipodi:type="arc"
       style="color:#000000;fill:#337d00;fill-opacity:1;fill-rule:nonzero;stroke:none;stroke-width:0.25000000000000000;marker:none;visibility:visible;display:inline;overflow:visible;enable-background:accumulate"
       id="path2989"
       sodipodi:cx="62.5"
       sodipodi:cy="16.5"
       sodipodi:rx="12.5"
       sodipodi:ry="12.5"
       d="m 75,16.5 a 12.5,12.5 0 1 1 -25,0 12.5,12.5 0 1 1 25,0 z"
       transform="translate(-32.867187,990.83092)" />
    <path
       sodipodi:type="inkscape:offset"
       inkscape:radius="0"
       inkscape:original="M 28.3125 999.0625 L 28.3125 1006 L 21.375 1006 L 21.375 1008.6562 L 28.3125 1008.6562 L 28.3125 1015.5938 L 30.9375 1015.5938 L 30.9375 1008.6562 L 37.875 1008.6562 L 37.875 1006 L 30.9375 1006 L 30.9375 999.0625 L 28.3125 999.0625 z "
       xlink:href="#text3759"
       style="font-size:31.99997711px;font-style:normal;font-variant:normal;font-weight:normal;font-stretch:normal;text-align:justify;line-height:110.00000238%;letter-spacing:0px;word-spacing:0px;writing-mode:lr-tb;text-anchor:start;fill:#000000;fill-opacity:1;stroke:none;font-family:DejaVu Sans Mono;-inkscape-font-specification:DejaVu Sans Mono"
       id="path3798"
       inkscape:href="#text3759"
       d="m 28.3125,999.0625 0,6.9375 -6.9375,0 0,2.6562 6.9375,0 0,6.9376 2.625,0 0,-6.9376 6.9375,0 0,-2.6562 -6.9375,0 0,-6.9375 -2.625,0 z" />
    <g
       style="font-size:31.99997710999999967px;font-style:normal;font-variant:normal;font-weight:normal;font-stretch:normal;text-align:justify;line-height:110.00000238000001218%;letter-spacing:0px;word-spacing:0px;writing-mode:lr-tb;text-anchor:start;fill:#ffffff;fill-opacity:1;stroke:none;font-family:DejaVu Sans Mono;-inkscape-font-specification:DejaVu Sans Mono"
       id="text3759">
      <path
         sodipodi:type="inkscape:offset"
         inkscape:radius="1.0099202"
         inkscape:original="M 28.3125 999.0625 L 28.3125 1006 L 21.375 1006 L 21.375 1008.6562 L 28.3125 1008.6562 L 28.3125 1015.5938 L 30.9375 1015.5938 L 30.9375 1008.6562 L 37.875 1008.6562 L 37.875 1006 L 30.9375 1006 L 30.9375 999.0625 L 28.3125 999.0625 z "
         style="fill:#ffffff;fill-opacity:1"
         id="path3806"
         d="m 28.125,998.0625 a 1.0100212,1.0100212 0 0 0 -0.8125,1 l 0,5.9375 -5.9375,0 a 1.0100212,1.0100212 0 0 0 -1,1 l 0,2.6562 a 1.0100212,1.0100212 0 0 0 1,1 l 5.9375,0 0,5.9376 a 1.0100212,1.0100212 0 0 0 1,1 l 2.625,0 a 1.0100212,1.0100212 0 0 0 1,-1 l 0,-5.9376 5.9375,0 a 1.0100212,1.0100212 0 0 0 1,-1 l 0,-2.6562 a 1.0100212,1.0100212 0 0 0 -1,-1 l -5.9375,0 0,-5.9375 a 1.0100212,1.0100212 0 0 0 -1,-1 l -2.625,0 a 1.0100212,1.0100212 0 0 0 -0.1875,0 z" />
    </g>
  </g>
</svg>
